<svg width="785" height="176" viewBox="0 0 785 176" fill="none" xmlns="http://www.w3.org/2000/svg">
<path d="M174.942 61.6104L105.936 97.9346C99.7585 101.185 86.0466 100.741 79.8514 97.4384L4.68535 57.5212C2.72897 56.4775 0.0346577 52.3027 0.000335236 50.1982C-0.0339872 48.0937 2.57452 43.6622 4.46225 42.6527L78.3756 3.36857C86.8704 -1.14842 100.153 -1.1142 108.648 3.4199L182.527 42.7896C184.38 43.782 186.8 48.0937 186.869 50.1469C186.937 52.2 182.613 56.238 182.613 58.2911L182.493 93.2123C187.83 97.4213 192.378 102.161 191.056 107.978C189.735 113.795 184.432 118.312 178.597 118.21C173.208 118.107 167.442 113.881 166.378 107.893C165.452 102.606 167.991 96.7027 175.165 94.0165L174.925 61.6104H174.942Z" fill="#00ED64"/>
<path d="M166.979 91.8436C146.78 120.024 124.986 144.525 103.843 170.686C99.7587 175.733 89.6164 178.351 84.674 172.414C62.8106 146.133 40.9987 120.571 19.3584 91.5186C51.8446 100.741 80.2464 138.074 106.16 125.02C126.41 115.438 142.284 100.347 166.979 91.8436Z" fill="#00ED64"/>
<path d="M673.606 15.4531H740.739C746.842 15.4531 752.363 16.2281 757.304 17.7781C762.244 19.2311 766.458 21.3623 769.945 24.1716C773.433 26.9809 776.097 30.4198 777.937 34.4884C779.778 38.4602 780.698 42.9647 780.698 48.002C780.698 55.558 778.712 62 774.741 67.328C770.769 72.559 765.296 76.0949 758.321 77.9354L780.553 108.45H749.893L729.695 80.551H698.309V108.45H673.606V15.4531ZM698.309 56.5752H743.064C747.52 56.5752 750.523 55.8002 752.073 54.2503C753.719 52.7003 754.543 50.6176 754.543 48.002C754.543 45.1928 753.623 43.0616 751.782 41.6085C750.038 40.1554 746.987 39.4289 742.628 39.4289H698.309V56.5752Z" fill="#002535"/>
<path d="M545.717 62.5328C545.717 54.9768 546.879 48.2442 549.204 42.335C551.529 36.3289 554.871 31.2432 559.23 27.0777C563.687 22.8153 569.063 19.5701 575.36 17.3421C581.656 15.114 588.728 14 596.574 14H615.464C623.602 14 630.867 15.114 637.261 17.3421C643.751 19.5701 649.224 22.8153 653.68 27.0777C658.233 31.2432 661.721 36.3289 664.143 42.335C666.564 48.2442 667.775 54.9768 667.775 62.5328C667.775 69.9919 666.564 76.676 664.143 82.5852C661.818 88.3975 658.427 93.338 653.971 97.4066C649.515 101.475 644.042 104.575 637.551 106.706C631.061 108.837 623.699 109.903 615.464 109.903H596.574C588.631 109.903 581.511 108.837 575.214 106.706C568.918 104.478 563.59 101.33 559.23 97.2613C554.871 93.1927 551.529 88.2522 549.204 82.4399C546.879 76.5307 545.717 69.895 545.717 62.5328ZM571.872 62.3875C571.872 69.7497 574.003 75.4167 578.266 79.3885C582.625 83.2633 588.922 85.2008 597.156 85.2008H615.464C619.339 85.2008 622.875 84.8133 626.072 84.0383C629.269 83.1664 632.03 81.8102 634.354 79.9697C636.679 78.1291 638.472 75.7558 639.731 72.8496C640.99 69.9435 641.62 66.4561 641.62 62.3875C641.62 58.3188 640.99 54.8315 639.731 51.9253C638.472 48.9223 636.679 46.452 634.354 44.5146C632.03 42.4803 629.269 41.0272 626.072 40.1554C622.875 39.1867 619.339 38.7023 615.464 38.7023H597.156C589.115 38.7023 582.867 40.785 578.411 44.9505C574.052 49.0191 571.872 54.8315 571.872 62.3875Z" fill="#002535"/>
<path d="M478.099 39.4289H437.413V15.4531H543.488V39.4289H502.802V108.45H478.099V39.4289Z" fill="#002535"/>
<path d="M347.208 15.4531V63.8406C347.208 70.8154 349.291 76.2402 353.456 80.115C357.622 83.9899 363.483 85.9274 371.039 85.9274H386.005C400.924 85.9274 408.383 78.5651 408.383 63.8406V15.4531H433.085V63.9859C433.085 78.7104 429.016 90.0444 420.879 97.9879C412.839 105.931 401.263 109.903 386.151 109.903H367.987C353.456 109.903 342.219 105.931 334.276 97.9879C326.429 90.0444 322.506 78.7104 322.506 63.9859V15.4531H347.208Z" fill="#002535"/>
<path d="M252.758 39.4289H212.072V15.4531H318.147V39.4289H277.461V108.45H252.758V39.4289Z" fill="#002535"/>
<rect x="649.247" y="121.829" width="134.926" height="40.5792" rx="20.2896" fill="#00ED64"/>
<path d="M683.101 152.162C676.71 152.162 672.479 148.023 672.479 141.662C672.479 135.301 676.71 131.162 683.101 131.162C689.553 131.162 693.753 135.301 693.753 141.662C693.753 148.023 689.553 152.162 683.101 152.162ZM683.101 148.997C687.94 148.997 690.284 146.744 690.284 141.662C690.284 136.579 687.94 134.297 683.101 134.297C678.262 134.297 675.949 136.579 675.949 141.662C675.949 146.744 678.262 148.997 683.101 148.997ZM699.468 151.857H696.181V136.732H699.194V141.418H699.407C699.864 138.862 701.873 136.427 705.707 136.427C709.907 136.427 711.977 139.258 711.977 142.758V151.857H708.69V143.64C708.69 140.81 707.412 139.379 704.277 139.379C700.96 139.379 699.468 141.084 699.468 144.371V151.857ZM718.193 151.857H714.906V131.466H718.193V151.857ZM724.523 134.966H721.236V131.466H724.523V134.966ZM724.523 151.857H721.236V136.732H724.523V151.857ZM730.854 151.857H727.567V136.732H730.58V141.418H730.793C731.249 138.862 733.258 136.427 737.093 136.427C741.293 136.427 743.362 139.258 743.362 142.758V151.857H740.075V143.64C740.075 140.81 738.797 139.379 735.662 139.379C732.345 139.379 730.854 141.084 730.854 144.371V151.857ZM753.9 152.162C748.939 152.162 745.682 149.362 745.682 144.31C745.682 139.592 748.909 136.427 753.839 136.427C758.526 136.427 761.721 139.014 761.721 143.61C761.721 144.158 761.691 144.584 761.6 145.04H748.756C748.878 147.962 750.308 149.514 753.808 149.514C756.974 149.514 758.282 148.479 758.282 146.684V146.44H761.569V146.714C761.569 149.94 758.404 152.162 753.9 152.162ZM753.778 139.014C750.43 139.014 748.969 140.505 748.787 143.214H758.617V143.153C758.617 140.353 757.004 139.014 753.778 139.014Z" fill="#002535"/>
</svg>
