<svg width="808" height="195" viewBox="0 0 808 195" fill="none" xmlns="http://www.w3.org/2000/svg">
<path d="M193.233 68.0521L117.013 108.174C110.189 111.765 95.0432 111.274 88.2003 107.626L5.17522 63.5353C3.01429 62.3825 0.0382813 57.7712 0.000370287 55.4467C-0.0375407 53.1221 2.84369 48.2273 4.9288 47.1123L86.5701 3.72078C95.9531 -1.26849 110.625 -1.2307 120.008 3.77747L201.611 47.2635C203.658 48.3596 206.331 53.1221 206.407 55.39C206.483 57.6578 201.706 62.1179 201.706 64.3858L201.573 102.958C207.468 107.607 212.492 112.842 211.032 119.268C209.572 125.693 203.715 130.683 197.27 130.569C191.318 130.456 184.949 125.788 183.774 119.173C182.75 113.334 185.556 106.813 193.479 103.846L193.214 68.0521H193.233Z" fill="#00ED64"/>
<path d="M184.438 101.446C162.127 132.572 138.054 159.635 114.701 188.531C110.189 194.107 98.9866 196.998 93.5274 190.44C69.3781 161.412 45.2857 133.177 21.3828 101.087C57.2656 111.273 88.6369 152.51 117.26 138.091C139.627 127.507 157.161 110.839 184.438 101.446Z" fill="#00ED64"/>
<path d="M697.606 24.6445H764.739C770.842 24.6445 776.363 25.4195 781.304 26.9695C786.244 28.4225 790.458 30.5537 793.945 33.363C797.433 36.1723 800.097 39.6112 801.937 43.6798C803.778 47.6516 804.698 52.1561 804.698 57.1935C804.698 64.7495 802.712 71.1914 798.741 76.5194C794.769 81.7505 789.296 85.2863 782.321 87.1268L804.553 117.641H773.893L753.695 89.7424H722.309V117.641H697.606V24.6445ZM722.309 65.7666H767.064C771.52 65.7666 774.523 64.9916 776.073 63.4417C777.719 61.8917 778.543 59.809 778.543 57.1935C778.543 54.3842 777.623 52.253 775.782 50.7999C774.038 49.3468 770.987 48.6203 766.628 48.6203H722.309V65.7666Z" fill="white"/>
<path d="M569.717 71.7242C569.717 64.1682 570.879 57.4356 573.204 51.5264C575.529 45.5204 578.871 40.4346 583.23 36.2691C587.687 32.0067 593.063 28.7615 599.36 26.5335C605.656 24.3054 612.728 23.1914 620.574 23.1914H639.464C647.602 23.1914 654.867 24.3054 661.261 26.5335C667.751 28.7615 673.224 32.0067 677.68 36.2691C682.233 40.4346 685.721 45.5204 688.143 51.5264C690.564 57.4356 691.775 64.1682 691.775 71.7242C691.775 79.1833 690.564 85.8674 688.143 91.7766C685.818 97.5889 682.427 102.529 677.971 106.598C673.515 110.667 668.042 113.767 661.551 115.898C655.061 118.029 647.699 119.094 639.464 119.094H620.574C612.631 119.094 605.511 118.029 599.214 115.898C592.918 113.67 587.59 110.521 583.23 106.453C578.871 102.384 575.529 97.4436 573.204 91.6313C570.879 85.7221 569.717 79.0864 569.717 71.7242ZM595.872 71.5789C595.872 78.9411 598.003 84.6081 602.266 88.5799C606.625 92.4547 612.922 94.3922 621.156 94.3922H639.464C643.339 94.3922 646.875 94.0047 650.072 93.2297C653.269 92.3579 656.03 91.0017 658.354 89.1611C660.679 87.3205 662.472 84.9472 663.731 82.041C664.99 79.1349 665.62 75.6475 665.62 71.5789C665.62 67.5102 664.99 64.0229 663.731 61.1167C662.472 58.1137 660.679 55.6435 658.354 53.706C656.03 51.6717 653.269 50.2186 650.072 49.3468C646.875 48.3781 643.339 47.8937 639.464 47.8937H621.156C613.115 47.8937 606.867 49.9765 602.411 54.1419C598.052 58.2106 595.872 64.0229 595.872 71.5789Z" fill="white"/>
<path d="M502.099 48.6203H461.413V24.6445H567.488V48.6203H526.802V117.641H502.099V48.6203Z" fill="white"/>
<path d="M371.208 24.6445V73.032C371.208 80.0068 373.291 85.4316 377.456 89.3064C381.622 93.1813 387.483 95.1188 395.039 95.1188H410.005C424.924 95.1188 432.383 87.7565 432.383 73.032V24.6445H457.085V73.1773C457.085 87.9018 453.016 99.2358 444.879 107.179C436.839 115.123 425.263 119.095 410.151 119.095H391.987C377.456 119.095 366.219 115.123 358.276 107.179C350.429 99.2358 346.506 87.9018 346.506 73.1773V24.6445H371.208Z" fill="white"/>
<path d="M276.758 48.6203H236.072V24.6445H342.147V48.6203H301.461V117.641H276.758V48.6203Z" fill="white"/>
<rect x="483" y="131" width="325" height="60" rx="30" fill="#00ED64"/>
<path d="M571.426 173.939C568.438 176.562 564.043 177.873 558.242 177.873C552.456 177.873 548.062 176.562 545.059 173.939C542.056 171.303 540.554 167.135 540.554 161.437C540.554 155.739 542.056 151.579 545.059 148.957C548.062 146.334 552.456 145.023 558.242 145.023C564.043 145.023 568.438 146.334 571.426 148.957C574.429 151.579 575.93 155.739 575.93 161.437C575.93 167.135 574.429 171.303 571.426 173.939ZM565.427 153.593C563.948 151.835 561.553 150.956 558.242 150.956C554.946 150.956 552.551 151.835 551.057 153.593C549.578 155.351 548.838 157.973 548.838 161.459C548.838 164.931 549.578 167.545 551.057 169.303C552.551 171.046 554.946 171.918 558.242 171.918C561.553 171.918 563.948 171.046 565.427 169.303C566.907 167.545 567.646 164.931 567.646 161.459C567.646 157.973 566.907 155.351 565.427 153.593ZM591.717 175.851V154.472C591.717 154.076 591.842 153.754 592.091 153.505C592.354 153.241 592.677 153.109 593.057 153.109H597.979C598.36 153.109 598.675 153.241 598.924 153.505C599.188 153.754 599.32 154.076 599.32 154.472V155.856C601.839 153.732 604.52 152.67 607.362 152.67C610.218 152.67 612.54 153.542 614.327 155.285C616.114 157.013 617.008 159.665 617.008 163.239V175.851C617.008 176.232 616.876 176.554 616.612 176.818C616.363 177.067 616.041 177.191 615.645 177.191H610.745C610.365 177.191 610.042 177.067 609.779 176.818C609.53 176.554 609.405 176.232 609.405 175.851V163.239C609.405 159.738 608.006 157.987 605.208 157.987C603.377 157.987 601.414 159.035 599.32 161.129V175.851C599.32 176.232 599.188 176.554 598.924 176.818C598.675 177.067 598.36 177.191 597.979 177.191H593.057C592.677 177.191 592.354 177.067 592.091 176.818C591.842 176.554 591.717 176.232 591.717 175.851ZM634.135 175.851V147.045C634.135 146.649 634.259 146.327 634.508 146.078C634.772 145.814 635.094 145.683 635.475 145.683H640.397C640.778 145.683 641.093 145.814 641.342 146.078C641.606 146.327 641.737 146.649 641.737 147.045V175.851C641.737 176.232 641.606 176.554 641.342 176.818C641.093 177.067 640.778 177.191 640.397 177.191H635.475C635.094 177.191 634.772 177.067 634.508 176.818C634.259 176.554 634.135 176.232 634.135 175.851ZM658.843 148.517V147.77C658.843 146.994 659.062 146.378 659.502 145.924C659.956 145.47 660.579 145.243 661.37 145.243H664.094C664.871 145.243 665.486 145.47 665.94 145.924C666.394 146.364 666.621 146.979 666.621 147.77V148.517C666.621 149.293 666.394 149.909 665.94 150.363C665.5 150.817 664.885 151.044 664.094 151.044H661.37C660.593 151.044 659.978 150.817 659.524 150.363C659.07 149.909 658.843 149.293 658.843 148.517ZM658.931 175.851V154.999C658.931 154.604 659.055 154.281 659.304 154.032C659.568 153.783 659.89 153.659 660.271 153.659H665.193C665.588 153.659 665.911 153.791 666.16 154.054C666.409 154.303 666.533 154.618 666.533 154.999V175.851C666.533 176.247 666.401 176.569 666.138 176.818C665.889 177.067 665.574 177.191 665.193 177.191H660.271C659.875 177.191 659.553 177.067 659.304 176.818C659.055 176.569 658.931 176.247 658.931 175.851ZM683.726 175.851V154.472C683.726 154.076 683.851 153.754 684.1 153.505C684.363 153.241 684.686 153.109 685.067 153.109H689.988C690.369 153.109 690.684 153.241 690.933 153.505C691.197 153.754 691.329 154.076 691.329 154.472V155.856C693.848 153.732 696.529 152.67 699.371 152.67C702.227 152.67 704.549 153.542 706.336 155.285C708.123 157.013 709.017 159.665 709.017 163.239V175.851C709.017 176.232 708.885 176.554 708.621 176.818C708.372 177.067 708.05 177.191 707.654 177.191H702.755C702.374 177.191 702.051 177.067 701.788 176.818C701.539 176.554 701.414 176.232 701.414 175.851V163.239C701.414 159.738 700.015 157.987 697.217 157.987C695.386 157.987 693.424 159.035 691.329 161.129V175.851C691.329 176.232 691.197 176.554 690.933 176.818C690.684 177.067 690.369 177.191 689.988 177.191H685.067C684.686 177.191 684.363 177.067 684.1 176.818C683.851 176.554 683.726 176.232 683.726 175.851ZM728.166 174.423C725.91 172.284 724.782 169.208 724.782 165.194C724.782 161.166 725.917 158.075 728.188 155.922C730.458 153.754 733.607 152.67 737.636 152.67C741.664 152.67 744.806 153.725 747.062 155.834C749.318 157.929 750.446 160.939 750.446 164.865V166.117C750.446 166.513 750.314 166.842 750.05 167.106C749.801 167.355 749.479 167.479 749.083 167.479H732.538C732.685 169.281 733.197 170.592 734.076 171.413C734.97 172.233 736.391 172.643 738.339 172.643C740.287 172.643 741.62 172.204 742.338 171.325C743.056 170.446 743.942 169.999 744.997 169.984H748.271C748.666 169.984 748.988 170.116 749.237 170.38C749.501 170.629 749.633 170.951 749.633 171.347C749.633 175.551 745.626 177.646 737.614 177.631C733.571 177.631 730.421 176.562 728.166 174.423ZM732.494 162.843H742.711C742.565 159.386 740.866 157.658 737.614 157.658C734.376 157.658 732.67 159.386 732.494 162.843Z" fill="#002535"/>
</svg>
