<svg width="632" height="92" viewBox="0 0 632 92" fill="none" xmlns="http://www.w3.org/2000/svg">
<rect x="54" y="59" width="578" height="11" fill="#00ED64"/>
<path d="M110.802 70H102.755V26.9104H82.9024V19.616H130.579V26.9104H110.802V70ZM150.897 70.752C140.369 70.752 135.255 63.7584 135.255 55.1104V32.6256H143.302V52.9296C143.302 59.9232 146.535 63.4576 154.431 63.4576C162.703 63.4576 166.538 59.2464 166.538 51.1248V32.6256H174.585V70H167.14V58.4192H166.689C165.486 64.736 160.522 70.752 150.897 70.752ZM206.478 70H197.906C189.859 70 184.896 66.4656 184.896 57.3664V39.3936H178.579V32.6256H184.896V24.4288H192.942V32.6256H206.478V39.3936H192.942V56.9152C192.942 61.5024 195.048 62.7056 199.71 62.7056H206.478V70ZM230.659 70.752C218.251 70.752 209.904 62.856 209.904 51.3504C209.904 39.6944 218.251 31.8736 230.659 31.8736C243.142 31.8736 251.49 39.6944 251.49 51.3504C251.49 62.856 243.142 70.752 230.659 70.752ZM230.659 63.5328C239.758 63.5328 243.518 59.2464 243.518 51.3504C243.518 43.3792 239.758 39.0176 230.659 39.0176C221.635 39.0176 217.875 43.3792 217.875 51.3504C217.875 59.2464 221.635 63.5328 230.659 63.5328ZM265.505 70H257.383V32.6256H264.828V42.7024H265.355C266.483 36.6864 270.543 31.8736 278.214 31.8736C286.711 31.8736 290.396 37.9648 290.396 45.0336V49.9216H282.35V46.6128C282.35 41.2736 280.094 38.792 274.529 38.792C268.137 38.792 265.505 42.3264 265.505 49.0192V70ZM320.238 70.752C304.446 70.752 293.993 60.5248 293.993 44.808C293.993 29.0912 304.446 18.864 320.238 18.864C336.181 18.864 346.558 29.0912 346.558 44.808C346.558 60.5248 336.181 70.752 320.238 70.752ZM320.238 62.9312C332.195 62.9312 337.985 57.3664 337.985 44.808C337.985 32.2496 332.195 26.6096 320.238 26.6096C308.281 26.6096 302.566 32.2496 302.566 44.808C302.566 57.3664 308.281 62.9312 320.238 62.9312ZM360.68 70H352.558V32.6256H360.003V44.2064H360.53C361.658 37.8896 366.621 31.8736 376.096 31.8736C386.474 31.8736 391.587 38.8672 391.587 47.5152V70H383.466V49.696C383.466 42.7024 380.307 39.168 372.562 39.168C364.365 39.168 360.68 43.3792 360.68 51.5008V70ZM406.946 70H398.824V19.616H406.946V70ZM422.588 28.264H414.466V19.616H422.588V28.264ZM422.588 70H414.466V32.6256H422.588V70ZM438.23 70H430.108V32.6256H437.553V44.2064H438.08C439.208 37.8896 444.171 31.8736 453.646 31.8736C464.024 31.8736 469.137 38.8672 469.137 47.5152V70H461.016V49.696C461.016 42.7024 457.857 39.168 450.112 39.168C441.915 39.168 438.23 43.3792 438.23 51.5008V70ZM495.174 70.752C482.916 70.752 474.87 63.8336 474.87 51.3504C474.87 39.6944 482.841 31.8736 495.024 31.8736C506.604 31.8736 514.5 38.2656 514.5 49.6208C514.5 50.9744 514.425 52.0272 514.2 53.1552H482.465C482.766 60.3744 486.3 64.2096 494.948 64.2096C502.769 64.2096 506.003 61.6528 506.003 57.216V56.6144H514.124V57.2912C514.124 65.2624 506.304 70.752 495.174 70.752ZM494.873 38.2656C486.601 38.2656 482.992 41.9504 482.54 48.6432H506.83V48.4928C506.83 41.5744 502.844 38.2656 494.873 38.2656ZM529.307 70H519.079V58.344H529.307V70ZM543.466 82.784H535.344V32.6256H542.789V43.0032H543.466C544.97 36.0848 550.234 31.8736 559.032 31.8736C570.613 31.8736 577.156 39.7696 577.156 51.3504C577.156 62.9312 570.764 70.752 559.108 70.752C550.685 70.752 545.271 66.3152 543.767 59.472H543.466V82.784ZM543.466 51.952C543.466 59.6224 548.354 63.3824 556.325 63.3824C564.372 63.3824 569.034 60.2992 569.034 51.3504C569.034 42.3264 564.296 39.3184 556.476 39.3184C548.128 39.3184 543.466 43.2288 543.466 51.2752V51.952ZM590.907 70H582.785V19.616H590.907V47.44H601.585L612.79 32.6256H622.265L608.203 50.5984L622.19 70H612.639L601.585 54.7344H590.907V70Z" fill="#002535"/>
<path d="M27.3571 65.7859V33.5734L18.208 27.8213V70.7754L36.0563 81.9996L54 70V59L35.9745 71.2013L27.3571 65.7859Z" fill="#00ED64"/>
<path d="M18.4944 17.3521L46.3384 33.935L56.0191 29.1159L18.8912 7L0 16.3989L0.842516 37.6345L10.2247 43.2244L9.37401 21.8873L18.4944 17.3521Z" fill="#00ED64"/>
<path d="M55.8303 8.48047L46.3745 13.9405L65.6338 23.4813L65.2493 33.5941L37.1805 49.7998L36.7715 60.5373L74.2021 38.9243L74.9996 17.9807L55.8303 8.48047Z" fill="#00ED64"/>
</svg>
